<?xml version="1.0" standalone="no"?><!DOCTYPE svg PUBLIC "-//W3C//DTD SVG 1.1//EN" "http://www.w3.org/Graphics/SVG/1.1/DTD/svg11.dtd"><svg t="1729950722764" class="icon" viewBox="0 0 1662 1024" version="1.1" xmlns="http://www.w3.org/2000/svg" p-id="4437" xmlns:xlink="http://www.w3.org/1999/xlink" width="103.875" height="64"><path d="M510.89536 354.133333h243.2c12.8 0 21.333333-10.666667 21.333333-21.333333 0-12.8-10.666667-21.333333-21.333333-21.333333H510.89536c-12.8 0-21.333333 10.666667-21.333333 21.333333s8.533333 21.333333 21.333333 21.333333zM508.762027 458.666667h354.133333c12.8 0 21.333333-10.666667 21.333333-21.333334 0-12.8-10.666667-21.333333-21.333333-21.333333H508.762027c-12.8 0-21.333333 10.666667-21.333334 21.333333-2.133333 12.8 8.533333 21.333333 21.333334 21.333334zM250.628693 115.2c0 8.533333 6.4 17.066667 17.066667 17.066667 8.533333 0 17.066667-8.533333 17.066667-17.066667V83.2h32c8.533333 0 17.066667-6.4 17.066666-17.066667 0-8.533333-8.533333-17.066667-17.066666-17.066666h-32V17.066667c0-8.533333-6.4-17.066667-17.066667-17.066667-8.533333 0-17.066667 8.533333-17.066667 17.066667v32h-32c-8.533333 0-17.066667 6.4-17.066666 17.066666 0 8.533333 8.533333 17.066667 17.066666 17.066667h32v32zM178.09536 974.933333H45.828693c-12.8 0-21.333333 10.666667-21.333333 21.333334 0 12.8 10.666667 21.333333 21.333333 21.333333h132.266667c12.8 0 21.333333-10.666667 21.333333-21.333333 2.133333-12.8-8.533333-21.333333-21.333333-21.333334zM101.29536 411.733333c32-19.2 42.666667-59.733333 23.466667-91.733333-19.2-32-59.733333-42.666667-91.733334-23.466667s-42.666667 59.733333-23.466666 91.733334c19.2 29.866667 59.733333 42.666667 91.733333 23.466666z m-61.866667-74.666666c10.666667-17.066667 29.866667-21.333333 46.933334-12.8s21.333333 29.866667 10.666666 44.8c-8.533333 14.933333-29.866667 21.333333-44.8 12.8-14.933333-8.533333-21.333333-27.733333-12.8-44.8zM190.89536 742.4h-21.333333v-21.333333c0-6.4-4.266667-10.666667-10.666667-10.666667s-10.666667 4.266667-10.666667 10.666667v21.333333h-21.333333c-6.4 0-10.666667 4.266667-10.666667 10.666667s4.266667 10.666667 10.666667 10.666666h21.333333v21.333334c0 6.4 4.266667 10.666667 10.666667 10.666666s10.666667-4.266667 10.666667-10.666666v-21.333334h21.333333c6.4 0 10.666667-4.266667 10.666667-10.666666s-6.4-10.666667-10.666667-10.666667z" fill="" p-id="4438"></path><path d="M1330.09536 864h-85.333333c6.4-19.2 8.533333-40.533333 8.533333-61.866667 0-42.666667-12.8-83.2-34.133333-115.2v-597.333333H510.89536v110.933333h-155.733333v774.4h-89.6c-12.8 0-21.333333 10.666667-21.333334 21.333334 0 12.8 10.666667 21.333333 21.333334 21.333333h795.733333c6.4 0 12.8-4.266667 17.066667-8.533333 61.866667-10.666667 113.066667-49.066667 142.933333-102.4h104.533333c12.8 0 21.333333-10.666667 21.333334-21.333334 4.266667-12.8-4.266667-21.333333-17.066667-21.333333zM555.69536 132.266667h618.666667l2.133333 505.6c-32-25.6-70.4-42.666667-113.066667-46.933334V198.4H555.69536V132.266667z m-155.733333 842.666666V243.2h620.8l-4.266667 347.733333c-51.2 6.4-98.133333 32-132.266667 68.266667v-2.133333c0-12.8-10.666667-21.333333-21.333333-21.333334H508.762027c-12.8 0-21.333333 10.666667-21.333334 21.333334 0 12.8 10.666667 21.333333 21.333334 21.333333h354.133333c2.133333 0 4.266667 0 6.4-2.133333-23.466667 34.133333-38.4 76.8-38.4 121.6 0 14.933333 2.133333 29.866667 4.266667 42.666666H508.762027c-12.8 0-21.333333 10.666667-21.333334 21.333334 0 12.8 10.666667 21.333333 21.333334 21.333333h341.333333c14.933333 34.133333 40.533333 64 70.4 85.333333H399.962027z m642.133333-4.266666c-93.866667 0-168.533333-76.8-168.533333-168.533334s76.8-168.533333 168.533333-168.533333 168.533333 76.8 168.533333 168.533333-74.666667 168.533333-168.533333 168.533334zM1438.89536 153.6c-36.266667 0-66.133333 29.866667-66.133333 68.266667 0 36.266667 29.866667 66.133333 66.133333 66.133333 36.266667 0 66.133333-29.866667 66.133333-66.133333v-2.133334c2.133333-36.266667-29.866667-66.133333-66.133333-66.133333z m29.866667 85.333333c-8.533333 14.933333-27.733333 19.2-44.8 12.8-17.066667-8.533333-21.333333-29.866667-12.8-44.8v-2.133333c8.533333-14.933333 29.866667-21.333333 44.8-10.666667 17.066667 8.533333 23.466667 27.733333 12.8 44.8zM1650.09536 652.8h-21.333333v-21.333333c0-6.4-4.266667-10.666667-10.666667-10.666667s-10.666667 4.266667-10.666667 10.666667v21.333333h-21.333333c-6.4 0-10.666667 4.266667-10.666667 10.666667s4.266667 10.666667 10.666667 10.666666h21.333333v21.333334c0 6.4 4.266667 10.666667 10.666667 10.666666s10.666667-4.266667 10.666667-10.666666v-21.333334h21.333333c6.4 0 10.666667-4.266667 10.666667-10.666666s-4.266667-10.666667-10.666667-10.666667z" fill="" p-id="4439"></path><path d="M508.762027 778.666667H662.362027c12.8 0 21.333333-10.666667 21.333333-21.333334 0-12.8-10.666667-21.333333-21.333333-21.333333h-155.733334c-12.8 0-21.333333 10.666667-21.333333 21.333333s10.666667 21.333333 23.466667 21.333334zM508.762027 569.6H662.362027c12.8 0 21.333333-10.666667 21.333333-21.333333 0-12.8-10.666667-21.333333-21.333333-21.333334h-155.733334c-12.8 0-21.333333 10.666667-21.333333 21.333334 0 12.8 10.666667 21.333333 23.466667 21.333333zM1133.828693 710.4c-8.533333-8.533333-21.333333-8.533333-29.866666 0l-61.866667 61.866667-61.866667-61.866667c-8.533333-8.533333-21.333333-8.533333-29.866666 0s-8.533333 21.333333 0 29.866667l61.866666 61.866666-61.866666 61.866667c-8.533333 8.533333-8.533333 21.333333 0 29.866667 4.266667 4.266667 10.666667 6.4 14.933333 6.4s10.666667-2.133333 14.933333-6.4l61.866667-61.866667 61.866667 61.866667c4.266667 4.266667 10.666667 6.4 14.933333 6.4s10.666667-2.133333 14.933333-6.4c8.533333-8.533333 8.533333-21.333333 0-29.866667l-61.866666-61.866667 61.866666-61.866666c8.533333-8.533333 8.533333-21.333333 0-29.866667z" fill="" p-id="4440"></path></svg>